<svg width="20" height="20" viewBox="0 0 20 20" fill="none" xmlns="http://www.w3.org/2000/svg">
<g opacity="0.85">
<path d="M5.1995 18.5546H15.0516C16.5581 18.5546 17.4288 17.6842 17.4288 15.9596V7.29638C17.4288 5.5721 16.5499 4.70138 14.8002 4.70138H13.4695C13.4195 2.94353 11.8959 1.44531 10.0041 1.44531C8.10415 1.44531 6.58057 2.94353 6.53022 4.70138H5.19986C3.45879 4.70138 2.57129 5.56353 2.57129 7.29638V15.96C2.57129 17.6925 3.45879 18.5546 5.19986 18.5546M10.0041 2.71781C11.1841 2.71781 12.0799 3.60531 12.122 4.70174H7.88629C7.91986 3.60531 8.81558 2.71781 10.0041 2.71781ZM5.2245 17.2071C4.38736 17.2071 3.91879 16.7635 3.91879 15.8932V7.36317C3.91879 6.49281 4.38736 6.04888 5.2245 6.04888H14.7838C15.6038 6.04888 16.0809 6.49281 16.0809 7.36317V15.8928C16.0809 16.7635 15.6038 17.2071 15.0263 17.2071H5.2245Z" fill="black"/>
</g>
</svg>
