<svg width="128" height="128" viewBox="0 0 128 128" fill="none" xmlns="http://www.w3.org/2000/svg">
<path d="M64.0004 21.3333C70.4004 21.3333 76.4271 22.72 81.8671 25.28C83.7871 26.1866 86.0804 25.92 87.5738 24.3733L87.8938 24.0533C90.4004 21.5466 89.7604 17.1733 86.5604 15.68C79.7338 12.48 72.0538 10.6666 64.0004 10.6666C55.9471 10.6666 48.2671 12.48 41.3871 15.68C38.1871 17.1733 37.5471 21.5466 40.0538 24.0533L40.3738 24.3733C41.8671 25.8666 44.1604 26.1866 46.0804 25.28C51.5738 22.72 57.6004 21.3333 64.0004 21.3333ZM106.667 64C106.667 70.4 105.28 76.4266 102.72 81.8666C101.814 83.7866 102.08 86.08 103.627 87.5733L103.947 87.8933C106.454 90.4 110.827 89.7599 112.32 86.56C115.52 79.7333 117.334 72.0533 117.334 64C117.334 55.9466 115.52 48.2666 112.32 41.3866C110.827 38.1866 106.454 37.5466 103.947 40.0533L103.627 40.3733C102.134 41.8666 101.814 44.16 102.72 46.08C105.28 51.5733 106.667 57.6 106.667 64ZM64.0004 106.667C57.6004 106.667 51.5738 105.28 46.1338 102.72C44.2138 101.813 41.9204 102.08 40.4271 103.627L40.1071 103.947C37.6004 106.453 38.2404 110.827 41.4404 112.32C48.2671 115.52 55.9471 117.333 64.0004 117.333C72.0538 117.333 79.7338 115.52 86.6138 112.32C89.8138 110.827 90.4538 106.453 87.9471 103.947L87.6271 103.627C86.8849 102.907 85.9385 102.433 84.9172 102.271C83.8958 102.109 82.8493 102.265 81.9204 102.72C76.4271 105.28 70.4004 106.667 64.0004 106.667ZM21.3338 64C21.3338 57.6 22.7204 51.5733 25.2804 46.1333C26.1871 44.2133 25.9204 41.92 24.3738 40.4266L24.0538 40.0533C21.5471 37.5466 17.2271 38.1866 15.6804 41.3866C12.382 48.469 10.6729 56.1872 10.6729 64C10.6729 71.8127 12.382 79.5309 15.6804 86.6133C17.1738 89.8133 21.5471 90.4533 24.0538 87.9466L24.3738 87.6266C25.8671 86.1333 26.1871 83.84 25.2804 81.92C22.6647 76.309 21.3172 70.1907 21.3338 64ZM61.3338 32C45.9204 32 33.8671 46.6133 38.2404 62.72C39.4138 66.9866 41.8671 70.7733 45.0138 73.92L51.7871 80.6933C52.5871 81.5466 53.2804 82.72 53.9204 84.48C56.1071 90.5066 61.2804 95.36 67.6804 96C70.7964 96.3058 73.9339 95.6969 76.7093 94.2476C79.4846 92.7984 81.7774 90.5717 83.3071 87.84C85.2271 84.3733 82.5071 80.1066 78.5071 80.1066C76.6938 80.1066 74.8804 80.96 74.0271 82.6133C73.1738 84.16 71.3604 85.3333 69.3338 85.3333C68.2157 85.3362 67.1249 84.9876 66.2157 84.3368C65.3066 83.686 64.6249 82.7659 64.2671 81.7066C63.4671 79.36 62.1338 75.9466 59.3071 73.12L52.0538 65.8666C49.4938 63.3066 48.0004 59.68 48.0004 56C48.0004 52.4637 49.4052 49.0724 51.9057 46.5719C54.4062 44.0714 57.7975 42.6666 61.3338 42.6666C66.5604 42.6666 71.0938 45.7066 73.2804 50.1333C74.2404 52.0533 76.0538 53.3333 78.1338 53.3333C82.1338 53.3333 84.6404 49.12 82.8804 45.5466C80.9294 41.4885 77.8719 38.0639 74.0599 35.6672C70.2479 33.2706 65.8366 31.9994 61.3338 32Z" fill="black"/>
<path d="M72 74.6666C76.4183 74.6666 80 71.0849 80 66.6666C80 62.2483 76.4183 58.6666 72 58.6666C67.5817 58.6666 64 62.2483 64 66.6666C64 71.0849 67.5817 74.6666 72 74.6666Z" fill="black"/>
</svg>
