<svg width="20" height="20" viewBox="0 0 20 20" fill="none" xmlns="http://www.w3.org/2000/svg">
<g opacity="0.85">
<path d="M8.55593 14.9179C9.89842 14.9161 11.2067 14.4945 12.2977 13.7122L16.2652 17.68C16.3543 17.7686 16.4601 17.8386 16.5765 17.886C16.6928 17.9334 16.8174 17.9572 16.9431 17.9561C17.4874 17.9561 17.8806 17.5375 17.8806 17.0018C17.8806 16.7507 17.797 16.5164 17.6127 16.3325L13.6702 12.3814C14.4988 11.2932 14.9927 9.94573 14.9927 8.48073C14.9927 4.94002 12.0966 2.04395 8.55593 2.04395C5.007 2.04395 2.11914 4.94002 2.11914 8.48073C2.11914 12.0214 5.007 14.9179 8.55593 14.9179ZM8.55593 13.5282C5.78521 13.5282 3.50843 11.2432 3.50843 8.48073C3.50843 5.71859 5.78521 3.43323 8.55593 3.43323C11.3181 3.43323 13.6034 5.71859 13.6034 8.48073C13.6034 11.2432 11.3181 13.5282 8.55593 13.5282Z" fill="black"/>
</g>
</svg>
