<svg width="128" height="128" viewBox="0 0 128 128" fill="none" xmlns="http://www.w3.org/2000/svg">
<path d="M60.9233 71.9861C61.7473 71.2368 62.8164 70.814 63.93 70.7971C65.0437 70.7803 66.1251 71.1706 66.9713 71.8947L67.3828 72.2924L102.766 111.209C103.331 111.831 103.714 112.596 103.873 113.422C104.031 114.247 103.959 115.101 103.664 115.888C103.369 116.675 102.863 117.365 102.202 117.884C101.54 118.402 100.748 118.727 99.913 118.825L99.3828 118.857H28.6216C27.7843 118.858 26.9629 118.628 26.247 118.194C25.5311 117.76 24.9482 117.137 24.5619 116.394C24.1756 115.652 24.0008 114.817 24.0564 113.981C24.1121 113.146 24.3962 112.342 24.8776 111.657L25.2388 111.209L60.6216 72.2924C60.7173 72.1856 60.818 72.0834 60.9233 71.9861ZM63.9999 9.14294C96.8228 9.14294 123.428 35.7486 123.428 68.5713C123.449 82.9732 118.219 96.8886 108.718 107.712L108.302 107.14L107.835 106.596L104.137 102.528C112.183 93.0447 116.591 81.0076 116.571 68.5713C116.571 39.5383 93.033 16.0001 63.9999 16.0001C34.9668 16.0001 11.4285 39.5383 11.4285 68.5713C11.4285 81.513 16.105 93.3666 23.8628 102.523L20.1599 106.596C19.8402 106.956 19.5598 107.348 19.3233 107.767C9.79898 96.9327 4.55379 82.9965 4.57133 68.5713C4.57133 35.7486 31.177 9.14294 63.9999 9.14294ZM63.9999 27.4286C71.7177 27.4282 79.2799 29.5986 85.8228 33.6918C92.3657 37.785 97.6254 43.636 101.001 50.5764C104.376 57.5168 105.732 65.2667 104.912 72.9408C104.093 80.6149 101.131 87.9037 96.3656 93.9746L91.6753 88.8181C95.4138 83.707 97.6637 77.6605 98.1757 71.3489C98.6876 65.0373 97.4416 58.7072 94.5758 53.0604C91.71 47.4137 87.3364 42.6709 81.9398 39.358C76.5432 36.045 70.3345 34.2913 64.0022 34.2913C57.6698 34.2913 51.4612 36.045 46.0646 39.358C40.668 42.6709 36.2944 47.4137 33.4285 53.0604C30.5627 58.7072 29.3167 65.0373 29.8287 71.3489C30.3407 77.6605 32.5906 83.707 36.329 88.8181L31.6342 93.9746C26.8689 87.9037 23.9073 80.6149 23.0876 72.9408C22.2679 65.2667 23.6233 57.5168 26.9989 50.5764C30.3744 43.636 35.6341 37.785 42.177 33.6918C48.7199 29.5986 56.2821 27.4282 63.9999 27.4286ZM63.9999 45.7142C68.022 45.7134 71.9731 46.7738 75.4542 48.7886C78.9353 50.8033 81.8232 53.7009 83.8261 57.1888C85.8291 60.6766 86.8762 64.6313 86.8618 68.6533C86.8473 72.6754 85.7718 76.6224 83.7439 80.0958L78.8068 74.6558C79.8039 72.2257 80.1874 69.5875 79.9235 66.9741C79.6595 64.3607 78.7562 61.8524 77.2932 59.6708C75.8303 57.4892 73.8527 55.7013 71.5351 54.465C69.2175 53.2287 66.6312 52.582 64.0045 52.582C61.3777 52.582 58.7914 53.2287 56.4738 54.465C54.1562 55.7013 52.1787 57.4892 50.7157 59.6708C49.2528 61.8524 48.3494 64.3607 48.0855 66.9741C47.8215 69.5875 48.205 72.2257 49.2022 74.6558L44.2513 80.0912C42.2243 76.6176 41.1498 72.6706 41.1361 68.6489C41.1225 64.6271 42.1702 60.6729 44.1736 57.1856C46.1769 53.6983 49.065 50.8013 52.5461 48.7872C56.0272 46.773 59.9781 45.713 63.9999 45.7142Z" fill="black"/>
</svg>
