<svg width="128" height="128" viewBox="0 0 128 128" fill="none" xmlns="http://www.w3.org/2000/svg">
<g clip-path="url(#clip0_54_452)">
<path d="M61.6852 52.1673C62.4277 49.9398 65.5732 49.9398 66.3157 52.1673L70.6694 65.242C71.6277 68.1162 73.2423 70.7276 75.3853 72.8694C77.5282 75.0111 80.1405 76.6243 83.0152 77.581L96.0832 81.9348C98.3107 82.6773 98.3107 85.8228 96.0832 86.5653L83.0084 90.919C80.1343 91.8773 77.5228 93.4919 75.3811 95.6348C73.2393 97.7778 71.6262 100.39 70.6694 103.265L66.3157 116.333C66.1556 116.821 65.8456 117.245 65.4298 117.546C65.014 117.848 64.5138 118.01 64.0004 118.01C63.4871 118.01 62.9868 117.848 62.5711 117.546C62.1553 117.245 61.8453 116.821 61.6852 116.333L57.3314 103.258C56.3738 100.385 54.7602 97.7736 52.6185 95.6319C50.4768 93.4902 47.8659 91.8767 44.9924 90.919L31.9177 86.5653C31.4299 86.4052 31.0052 86.0952 30.704 85.6794C30.4029 85.2636 30.2408 84.7634 30.2408 84.25C30.2408 83.7367 30.4029 83.2364 30.704 82.8207C31.0052 82.4049 31.4299 82.0949 31.9177 81.9348L44.9924 77.581C47.8659 76.6234 50.4768 75.0098 52.6185 72.8681C54.7602 70.7264 56.3738 68.1155 57.3314 65.242L61.6852 52.1673ZM35.6099 17.749C35.7067 17.4567 35.8932 17.2023 36.1428 17.022C36.3924 16.8418 36.6925 16.7447 37.0004 16.7447C37.3084 16.7447 37.6084 16.8418 37.8581 17.022C38.1077 17.2023 38.2941 17.4567 38.3909 17.749L41.0032 25.5925C42.1709 29.089 44.9114 31.8295 48.4079 32.9973L56.2514 35.6095C56.5437 35.7063 56.7981 35.8928 56.9784 36.1424C57.1587 36.392 57.2557 36.6921 57.2557 37C57.2557 37.3079 57.1587 37.608 56.9784 37.8577C56.7981 38.1073 56.5437 38.2937 56.2514 38.3905L48.4079 41.0028C46.6825 41.5754 45.1145 42.5431 43.829 43.8286C42.5435 45.1141 41.5758 46.6821 41.0032 48.4075L38.3909 56.251C38.2941 56.5433 38.1077 56.7977 37.8581 56.978C37.6084 57.1583 37.3084 57.2553 37.0004 57.2553C36.6925 57.2553 36.3924 57.1583 36.1428 56.978C35.8932 56.7977 35.7067 56.5433 35.6099 56.251L32.9977 48.4075C32.425 46.6821 31.4574 45.1141 30.1719 43.8286C28.8863 42.5431 27.3184 41.5754 25.5929 41.0028L17.7494 38.3905C17.4571 38.2937 17.2027 38.1073 17.0225 37.8577C16.8422 37.608 16.7451 37.3079 16.7451 37C16.7451 36.6921 16.8422 36.392 17.0225 36.1424C17.2027 35.8928 17.4571 35.7063 17.7494 35.6095L25.5929 32.9973C27.3184 32.4246 28.8863 31.457 30.1719 30.1715C31.4574 28.8859 32.425 27.318 32.9977 25.5925L35.6099 17.749ZM83.3257 10.6683C83.3923 10.4761 83.5172 10.3094 83.6829 10.1915C83.8486 10.0735 84.047 10.0101 84.2504 10.0101C84.4538 10.0101 84.6522 10.0735 84.8179 10.1915C84.9837 10.3094 85.1085 10.4761 85.1752 10.6683L86.9167 15.8928C87.6929 18.2283 89.5222 20.0575 91.8577 20.8338L97.0822 22.5753C97.2744 22.6419 97.441 22.7668 97.559 22.9325C97.6769 23.0982 97.7403 23.2966 97.7403 23.5C97.7403 23.7034 97.6769 23.9018 97.559 24.0675C97.441 24.2333 97.2744 24.3581 97.0822 24.4248L91.8577 26.1663C90.7077 26.551 89.6629 27.1976 88.8054 28.055C87.948 28.9125 87.3014 29.9573 86.9167 31.1073L85.1752 36.3318C85.1085 36.524 84.9837 36.6906 84.8179 36.8086C84.6522 36.9265 84.4538 36.9899 84.2504 36.9899C84.047 36.9899 83.8486 36.9265 83.6829 36.8086C83.5172 36.6906 83.3923 36.524 83.3257 36.3318L81.5842 31.1073C81.1994 29.9573 80.5529 28.9125 79.6954 28.055C78.838 27.1976 77.7931 26.551 76.6432 26.1663L71.4254 24.4248C71.2332 24.3581 71.0666 24.2333 70.9486 24.0675C70.8307 23.9018 70.7673 23.7034 70.7673 23.5C70.7673 23.2966 70.8307 23.0982 70.9486 22.9325C71.0666 22.7668 71.2332 22.6419 71.4254 22.5753L76.6499 20.8338C78.9854 20.0575 80.8147 18.2283 81.5909 15.8928L83.3257 10.6683Z" fill="black"/>
</g>
<defs>
<clipPath id="clip0_54_452">
<rect width="108" height="108" fill="white" transform="translate(10 10)"/>
</clipPath>
</defs>
</svg>
